<svg width="200" height="200" viewBox="0 0 200 200" xmlns="http://www.w3.org/2000/svg" xmlns:xlink="http://www.w3.org/1999/xlink">
  <defs>
    <linearGradient id="bgGradient" x1="0%" y1="0%" x2="100%" y2="100%">
      <stop offset="0%" style="stop-color:#3246B4;stop-opacity:1" />
      <stop offset="100%" style="stop-color:#48C7A0;stop-opacity:1" />
    </linearGradient>

    <filter id="iconShadow" x="-20%" y="-20%" width="140%" height="140%">
      <feGaussianBlur in="SourceAlpha" stdDeviation="2.5"/>
      <feOffset dx="0" dy="1.5" result="offsetblur"/>
      <feFlood flood-color="#000000" flood-opacity="0.25"/>
      <feComposite in2="offsetblur" operator="in"/>
      <feMerge>
        <feMergeNode/>
        <feMergeNode in="SourceGraphic"/>
      </feMerge>
    </filter>

    <path id="photoCard" d="M 128.91 144.11 L 160.77 122.95 C 162.77 121.62 165.48 122.18 166.78 124.19 L 180.73 145.74 C 182.03 147.75 181.44 150.43 179.43 151.72 L 147.57 172.88 C 145.57 174.21 142.86 173.65 141.56 171.64 L 127.61 150.09 C 126.31 148.08 126.90 145.40 128.91 144.11 Z"/>
  </defs>

  <rect x="10" y="10" width="180" height="180" rx="42" ry="42" fill="url(#bgGradient)" />
  <rect x="10" y="10" width="180" height="180" rx="42" ry="42" fill="white" fill-opacity="0.05" stroke="white" stroke-width="0.5" stroke-opacity="0.2"/>

  <g filter="url(#iconShadow)">
    
    <circle cx="90" cy="60" r="22" fill="none" stroke="white" stroke-width="5.5"/>
    <circle cx="90" cy="60" r="7" fill="none" stroke="white" stroke-width="5.5"/>

    <path d="M 90 82 C 90 110, 135 95, 135 120 C 135 135, 110 150, 95 155 C 80 160, 70 155, 60 150 C 50 145, 55 130, 70 120 C 85 110, 110 120, 120 130"
          fill="none" stroke="white" stroke-width="5.5" stroke-linecap="round"/>
    
    <path d="M 100 100 C 110 105, 125 105, 135 100" fill="none" stroke="white" stroke-width="3" stroke-linecap="round" stroke-dasharray="0.1, 7" opacity="0.7"/>

    <g transform="translate(-5, -5)">
      <use xlink:href="#photoCard" fill="white" fill-opacity="0.3" transform="rotate(-5, 154, 147)"/>
      
      <use xlink:href="#photoCard" fill="white" />
      
      <g transform="translate(154, 147) rotate(-33.5) translate(-154, -147)">
        <path d="M 135 160 L 145 145 L 155 155 L 165 140 L 175 160 Z" fill="#48C7A0" opacity="0.6"/>
        <circle cx="165" cy="135" r="4" fill="#FFB74D" />
        <rect x="135" y="165" width="25" height="2" rx="1" fill="#3246B4" opacity="0.4"/>
        <rect x="135" y="170" width="15" height="2" rx="1" fill="#3246B4" opacity="0.4"/>
      </g>
    </g>
    
  </g>
</svg>
