<?xml version="1.0" standalone="no"?><!DOCTYPE svg PUBLIC "-//W3C//DTD SVG 1.1//EN" "http://www.w3.org/Graphics/SVG/1.1/DTD/svg11.dtd"><svg t="1778258112772" class="icon" viewBox="0 0 1024 1024" version="1.1" xmlns="http://www.w3.org/2000/svg" p-id="8081" xmlns:xlink="http://www.w3.org/1999/xlink" width="200" height="200"><path d="M401.066667 768c0 28.16 23.04 51.2 51.2 51.2 28.16 0 51.2-23.04 51.2-51.2v-256c0-28.16-23.04-51.2-51.2-51.2h-256c-28.16 0-51.2 23.04-51.2 51.2 0 28.16 23.04 51.2 51.2 51.2h132.608L58.026667 834.048c-9.728 9.216-15.36 22.016-15.36 36.352a51.370667 51.370667 0 0 0 87.552 36.352l270.848-271.36V768z m256-768H247.466667c-28.16 0-51.2 23.04-51.2 51.2v307.2H298.666667v-256h307.2v256h256v563.2H298.666667v-38.912L198.314667 983.04c5.12 23.04 24.576 40.96 49.152 40.96h665.6c28.16 0 51.2-23.04 51.2-51.2V307.2L657.066667 0z" p-id="8082"></path></svg>